<?xml version="1.0" encoding="UTF-8" standalone="no"?>
<svg
   xmlns:dc="http://purl.org/dc/elements/1.1/"
   xmlns:cc="http://creativecommons.org/ns#"
   xmlns:rdf="http://www.w3.org/1999/02/22-rdf-syntax-ns#"
   xmlns:svg="http://www.w3.org/2000/svg"
   xmlns="http://www.w3.org/2000/svg"
   xmlns:sodipodi="http://sodipodi.sourceforge.net/DTD/sodipodi-0.dtd"
   xmlns:inkscape="http://www.inkscape.org/namespaces/inkscape"
   width="59.413986mm"
   height="24.674633mm"
   viewBox="0 0 59.413985 24.674633"
   version="1.1"
   id="svg8"
   inkscape:version="1.0.2 (e86c870879, 2021-01-15)"
   sodipodi:docname="logo_header.svg">
  <defs
     id="defs2">
    <rect
       x="-280.15811"
       y="-235.02901"
       width="1327.4524"
       height="635"
       id="rect1486" />
  </defs>
  <sodipodi:namedview
     id="base"
     pagecolor="#ffffff"
     bordercolor="#666666"
     borderopacity="1.0"
     inkscape:pageopacity="0.0"
     inkscape:pageshadow="2"
     inkscape:zoom="3.959798"
     inkscape:cx="56.917292"
     inkscape:cy="72.790246"
     inkscape:document-units="mm"
     inkscape:current-layer="layer1"
     inkscape:document-rotation="0"
     showgrid="false"
     inkscape:window-width="2560"
     inkscape:window-height="1377"
     inkscape:window-x="-8"
     inkscape:window-y="-8"
     inkscape:window-maximized="1" />
  <metadata
     id="metadata5">
    <rdf:RDF>
      <cc:Work
         rdf:about="">
        <dc:format>image/svg+xml</dc:format>
        <dc:type
           rdf:resource="http://purl.org/dc/dcmitype/StillImage" />
        <dc:title></dc:title>
      </cc:Work>
    </rdf:RDF>
  </metadata>
  <g
     inkscape:label="Layer 1"
     inkscape:groupmode="layer"
     id="layer1"
     transform="translate(124.54501,-477.75376)">
    <text
       xml:space="preserve"
       style="font-style:normal;font-weight:normal;font-size:9.84231px;line-height:1.25;font-family:sans-serif;fill:#749716;fill-opacity:1;stroke:none;stroke-width:0.246058"
       x="-109.10535"
       y="493.92242"
       id="text1482"><tspan
         sodipodi:role="line"
         id="tspan1480"
         x="-109.10535"
         y="493.92242"
         style="font-style:normal;font-variant:normal;font-weight:normal;font-stretch:normal;font-family:serif;-inkscape-font-specification:serif;fill:#749716;fill-opacity:1;stroke-width:0.246058">BFDB</tspan></text>
    <text
       xml:space="preserve"
       style="font-style:normal;font-weight:normal;font-size:5.14507px;line-height:1.25;font-family:sans-serif;fill:#749716;fill-opacity:1;stroke:none;stroke-width:0.385879"
       x="-106.70108"
       y="499.58411"
       id="text1492"><tspan
         sodipodi:role="line"
         id="tspan1490"
         x="-106.70108"
         y="499.58411"
         style="font-style:normal;font-variant:normal;font-weight:normal;font-stretch:normal;font-size:5.14507px;font-family:serif;-inkscape-font-specification:serif;fill:#749716;fill-opacity:1;stroke-width:0.385879">Bite Force Database</tspan></text>
    <text
       xml:space="preserve"
       id="text1484"
       style="font-style:normal;font-weight:normal;font-size:10.5833px;line-height:1.25;font-family:sans-serif;white-space:pre;shape-inside:url(#rect1486);fill:#000000;fill-opacity:1;stroke:none;" />
    <path
       style="fill:none;stroke:#bde64e;stroke-width:0.55;stroke-linecap:butt;stroke-linejoin:miter;stroke-miterlimit:4;stroke-dasharray:none;stroke-opacity:1"
       d="m -119.76874,490.7623 c 0,0 -1.87064,-1.03055 -2.66555,-1.73088 -0.58978,-0.5196 -1.17297,-1.09642 -1.52317,-1.80011 -0.2108,-0.42355 -0.32436,-0.91177 -0.31156,-1.3847 0.0149,-0.55139 0.26253,-1.07366 0.45003,-1.59241 0.23178,-0.64128 0.51179,-1.26669 0.83082,-1.86935 0.36853,-0.69618 0.77558,-1.37616 1.24623,-2.00781 0.40537,-0.54405 0.80227,-1.12291 1.35008,-1.52318 0.52977,-0.38707 1.1507,-0.70268 1.80011,-0.7962 0.70267,-0.10118 1.42758,0.0872 2.11167,0.27694 0.75194,0.20856 2.14629,0.93468 2.14629,0.93468"
       id="path861"
       sodipodi:nodetypes="caaaaaaaaac" />
    <path
       style="fill:#749716;fill-opacity:1;stroke:#bde64e;stroke-width:0.55;stroke-linecap:butt;stroke-linejoin:miter;stroke-miterlimit:4;stroke-dasharray:none;stroke-opacity:1"
       d="m -114.33379,479.26928 c 0,0 0.72419,-0.30942 1.10776,-0.31156 0.6214,-0.003 1.27727,0.14882 1.80012,0.48464 0.4413,0.28345 0.74613,0.75484 1.0039,1.21162 0.25828,0.45766 0.48057,0.96447 0.51927,1.48855 0.0182,0.24601 -0.0763,0.48827 -0.13847,0.72697 -0.0736,0.28248 0.005,0.7551 -0.27694,0.83082 -0.38685,0.1039 -0.59891,-0.53208 -0.90006,-0.7962 -0.52883,-0.46382 -1.07864,-0.90425 -1.59241,-1.3847 -0.55572,-0.51971 -1.36799,-0.89692 -1.60971,-1.61837 -0.0675,-0.20155 0.0865,-0.63177 0.0865,-0.63177"
       id="path863"
       sodipodi:nodetypes="caaaaaaaaac" />
    <path
       style="fill:#749716;fill-opacity:1;stroke:#bde64e;stroke-width:0.55;stroke-linecap:butt;stroke-linejoin:miter;stroke-miterlimit:4;stroke-dasharray:none;stroke-opacity:1"
       d="m -119.76874,490.7623 c 0,0 -0.34052,-0.56398 -0.39891,-0.88102 -0.0607,-0.32962 -0.11633,-0.71933 0.0612,-1.00361 0.20612,-0.33007 0.63606,-0.49047 1.01585,-0.57524 0.41929,-0.0936 0.86933,-0.0102 1.28511,0.0979 0.57414,0.14934 1.11502,0.42817 1.61557,0.74659 0.40063,0.25485 0.84328,0.5118 1.08928,0.91793 0.17538,0.28955 0.31278,0.66573 0.2203,0.99138 -0.0591,0.20814 -0.28501,0.32851 -0.45284,0.46508 -0.34147,0.27788 -0.68609,0.60539 -1.11377,0.70987 -0.58485,0.14289 -1.22764,0.0302 -1.79915,-0.15911 -0.35469,-0.11751 -0.67574,-0.33885 -0.95465,-0.58747 -0.22864,-0.20381 -0.56799,-0.72231 -0.56799,-0.72231"
       id="path865"
       sodipodi:nodetypes="caaaaaaaaaaac" />
    <path
       style="fill:none;stroke:#bde64e;stroke-width:0.55;stroke-linecap:butt;stroke-linejoin:miter;stroke-miterlimit:4;stroke-dasharray:none;stroke-opacity:1"
       d="m -114.88034,491.05624 c 0,0 0.79419,-0.47466 1.20554,-0.68562 0.3216,-0.16492 0.64961,-0.31862 0.98527,-0.45263 0.16415,-0.0655 0.38857,-0.0356 0.5018,-0.17134 0.10572,-0.12671 0.0498,-0.32626 0.0734,-0.48957 0.0549,-0.37914 0.0529,-0.77015 0.15911,-1.13824 0.0496,-0.17194 0.10671,-0.3513 0.22031,-0.48957 0.143,-0.17406 0.36378,-0.26601 0.55076,-0.39165 0.1644,-0.11047 0.34198,-0.20122 0.5018,-0.31822 0.10748,-0.0787 0.2078,-0.167 0.30598,-0.25702 0.0468,-0.0429 0.13265,-0.0712 0.13463,-0.13463 0.003,-0.0925 -0.12025,-0.14065 -0.18358,-0.20807 -0.0869,-0.0925 -0.23272,-0.1477 -0.26927,-0.26926 -0.0587,-0.19538 0.0896,-0.39835 0.1224,-0.59972 0.0701,-0.43 0.0879,-0.86752 0.1591,-1.29735 0.0252,-0.15221 0.0949,-0.45303 0.0949,-0.45303 v 0"
       id="path867"
       sodipodi:nodetypes="caaaaaaaaaaaaaaac" />
    <path
       style="fill:none;stroke:#bde64e;stroke-width:0.55;stroke-linecap:butt;stroke-linejoin:miter;stroke-miterlimit:4;stroke-dasharray:none;stroke-opacity:1"
       d="m -112.18773,489.74665 c 0,0 0.17136,-0.3088 0.30598,-0.41613 0.1843,-0.14695 0.46477,-0.13408 0.64868,-0.28151 0.21648,-0.17353 0.40825,-0.40788 0.48956,-0.67315 0.0706,-0.23026 -0.0344,-0.48147 -0.0245,-0.72211 0.0101,-0.24623 0.0857,-0.73435 0.0857,-0.73435"
       id="path869"
       sodipodi:nodetypes="caaaac" />
    <path
       style="fill:none;stroke:#bde64e;stroke-width:0.55;stroke-linecap:butt;stroke-linejoin:miter;stroke-miterlimit:4;stroke-dasharray:none;stroke-opacity:1"
       d="m -116.44695,492.23119 c 0,0 0.62644,0.18806 0.91886,0.33122 0.55204,0.27026 1.06736,0.61611 1.55779,0.9866 0.69771,0.52709 1.34575,1.1218 1.95589,1.74819 0.55412,0.56888 1.04654,1.19556 1.54048,1.81742 0.5232,0.65871 0.99325,1.35814 1.50586,2.02512 0.45794,0.59585 0.89241,1.2132 1.40201,1.7655 0.32665,0.35401 0.63272,0.75641 1.05584,0.9866 0.31344,0.17052 0.68212,0.27712 1.03852,0.25963 0.25701,-0.0126 0.52496,-0.10025 0.72697,-0.25963 0.12438,-0.0981 0.32629,-0.25438 0.25963,-0.3981 -0.0391,-0.0844 -0.18785,-0.0614 -0.27694,-0.0346 -0.0509,0.0153 -0.0688,0.11345 -0.12116,0.10385 -0.0711,-0.013 -0.0477,-0.14485 -0.10385,-0.19039 -0.0468,-0.038 -0.11349,-0.0432 -0.17309,-0.0519 -0.0571,-0.008 -0.11693,0.0133 -0.17309,0 -0.0377,-0.009 -0.0885,-0.0164 -0.10385,-0.0519 -0.0239,-0.0553 0.0785,-0.11901 0.0519,-0.17309 -0.0354,-0.0721 -0.14735,-0.0659 -0.22501,-0.0865 -0.0733,-0.0195 -0.18244,0.0282 -0.22502,-0.0346 -0.0432,-0.0637 0.0322,-0.1506 0.0519,-0.22501 0.0154,-0.0582 0.0879,-0.12476 0.0519,-0.17309 -0.0448,-0.0602 -0.15023,0.006 -0.22501,0 -0.0757,-0.006 -0.15993,0.004 -0.22502,-0.0346 -0.0495,-0.0297 -0.11442,-0.0818 -0.10385,-0.13848 0.02,-0.10701 0.19997,-0.0961 0.27694,-0.17308 0.077,-0.077 0.17564,-0.16811 0.17309,-0.27694 -0.002,-0.0912 -0.0696,-0.19516 -0.15578,-0.22502 -0.0742,-0.0257 -0.14741,0.0576 -0.22501,0.0692 -0.0685,0.0103 -0.13853,0.003 -0.20771,0 -0.0694,-0.003 -0.17749,0.0453 -0.2077,-0.0173 -0.0181,-0.0375 0.0477,-0.0682 0.0692,-0.10385 0.0374,-0.0619 0.11972,-0.11987 0.10385,-0.1904 -0.0172,-0.0766 -0.11675,-0.11136 -0.1904,-0.13847 -0.0706,-0.026 -0.18938,0.0489 -0.22501,-0.0173 -0.0281,-0.0523 0.061,-0.10213 0.0865,-0.15578 0.0267,-0.0561 0.0794,-0.11178 0.0692,-0.17309 -0.009,-0.0525 -0.0563,-0.0972 -0.10385,-0.12116 -0.0723,-0.0364 -0.16456,0.005 -0.24233,-0.0173 -0.0818,-0.0238 -0.19652,-0.0409 -0.22501,-0.12116 -0.0251,-0.0707 0.0553,-0.1395 0.0865,-0.2077 0.0268,-0.0587 0.0905,-0.10871 0.0865,-0.17309 -0.008,-0.12457 -0.0929,-0.26249 -0.20771,-0.31156 -0.0916,-0.0392 -0.19525,0.0629 -0.29425,0.0519 -0.0745,-0.008 -0.1907,-0.0135 -0.2077,-0.0865 -0.0139,-0.0597 0.0945,-0.0832 0.12116,-0.13847 0.028,-0.0581 0.076,-0.14087 0.0346,-0.19039 -0.0518,-0.062 -0.1677,0.0309 -0.24232,0 -0.0452,-0.0187 -0.0935,-0.056 -0.10385,-0.10385 -0.0104,-0.0482 0.0559,-0.0893 0.0519,-0.13847 -0.004,-0.0464 -0.0523,-0.0779 -0.0692,-0.12117 -0.0281,-0.0717 -0.0346,-0.15001 -0.0519,-0.22501 -0.0173,-0.075 0.004,-0.17188 -0.0519,-0.22501 -0.0467,-0.0445 -0.12678,-0.024 -0.1904,-0.0346 -0.0748,-0.0126 -0.19865,0.0365 -0.22501,-0.0346 -0.0185,-0.0499 0.0854,-0.0713 0.10385,-0.12116 0.02,-0.0541 0.0355,-0.12761 0,-0.17309 -0.0293,-0.0375 -0.11635,0.008 -0.13847,-0.0346 -0.0229,-0.0436 0.0485,-0.0893 0.0519,-0.13847 0.004,-0.0531 -0.0168,-0.10565 -0.0346,-0.15578 -0.0389,-0.10941 -0.0722,-0.23098 -0.15578,-0.31155 -0.0502,-0.0484 -0.12171,-0.0746 -0.1904,-0.0865 -0.0684,-0.0119 -0.14043,0.0347 -0.2077,0.0173 -0.0403,-0.0104 -0.0782,-0.0364 -0.10386,-0.0692 -0.0528,-0.0676 -0.10117,-0.15781 -0.0865,-0.24233 0.014,-0.0808 0.13919,-0.11009 0.15578,-0.19039 0.017,-0.0823 -0.0323,-0.16689 -0.0692,-0.24233 -0.0472,-0.0964 -0.0881,-0.22708 -0.19039,-0.25963 -0.0522,-0.0166 -0.10366,0.0352 -0.15578,0.0519 -0.0747,0.024 -0.14702,0.0779 -0.22502,0.0692 -0.0462,-0.005 -0.0964,-0.0299 -0.12116,-0.0692 -0.0431,-0.0686 -0.0117,-0.16154 -0.0173,-0.24232 -0.006,-0.0865 -0.003,-0.17407 -0.0173,-0.25963 -0.0255,-0.15325 -0.0913,-0.29759 -0.12116,-0.45003 -0.0179,-0.0913 0.003,-0.19186 -0.0346,-0.27694 -0.0215,-0.0487 -0.0534,-0.10434 -0.10385,-0.12116 -0.0505,-0.0168 -0.10467,0.0199 -0.15578,0.0346 -0.0824,0.0238 -0.15781,0.0719 -0.24233,0.0865 -0.0625,0.0108 -0.13222,0.0254 -0.19039,0 -0.10104,-0.0441 -0.17567,-0.14376 -0.22502,-0.24233 -0.0289,-0.0577 -0.0225,-0.12703 -0.0346,-0.19039 -0.0165,-0.0867 0.0163,-0.20368 -0.0519,-0.25963 -0.0402,-0.0329 -0.10416,-0.006 -0.15577,0 -0.0529,0.006 -0.1039,0.0229 -0.15578,0.0346 -0.0751,0.017 -0.15026,0.0703 -0.22502,0.0519 -0.10331,-0.0254 -0.18793,-0.11627 -0.24232,-0.20771 -0.0422,-0.071 -0.0282,-0.16318 -0.0519,-0.24232 -0.032,-0.10674 -0.0267,-0.25252 -0.12116,-0.31156 -0.0589,-0.0368 -0.1398,0.003 -0.20771,0.0173 -0.0838,0.0181 -0.16156,0.11545 -0.24232,0.0865 -0.0317,-0.0113 -0.043,-0.0541 -0.0519,-0.0865 -0.0216,-0.0778 0.0262,-0.16592 0,-0.24232 -0.0214,-0.0622 -0.0639,-0.12347 -0.12116,-0.15578 -0.086,-0.0485 -0.19901,-0.009 -0.29425,-0.0346 -0.0548,-0.015 -0.12481,-0.0216 -0.15578,-0.0692 -0.0534,-0.0822 0.01,-0.19668 0,-0.29425 -0.0174,-0.16997 -0.0371,-0.34466 -0.10385,-0.50196 -0.06,-0.14142 -0.16884,-0.25686 -0.25963,-0.38079 -0.0548,-0.0748 -0.17184,-0.21859 -0.17184,-0.21859 l 0.17184,0.21859"
       id="path871"
       sodipodi:nodetypes="caaaaaaaaaaaaaaaaaaaaaaaaaaaaaaaaaaaaaaaaaaaaaaaaaaaaaaaaaaaaaaaaaaaaaaaaaaaaaaaaaaaaaaaaaaaaaaaaaac" />
    <path
       style="fill:none;stroke:#bde64e;stroke-width:0.55;stroke-linecap:butt;stroke-linejoin:miter;stroke-miterlimit:4;stroke-dasharray:none;stroke-opacity:1"
       d="m -110.04121,482.8695 c 0,0 0.33595,-0.016 0.49714,0.0232 0.16141,0.0393 0.29607,0.15316 0.45285,0.20807 0.49588,0.17368 1.01723,0.26434 1.52989,0.37941 0.70651,0.15858 1.41263,0.32717 2.12961,0.42837 0.83903,0.11843 1.68802,0.15203 2.53351,0.20807 0.88856,0.0589 1.7808,0.0595 2.66813,0.13463 0.515831,0.0437 1.035231,0.0785 1.542135,0.18359 0.600357,0.12441 1.214301,0.25159 1.762438,0.52628 0.318054,0.15938 0.631748,0.36086 0.85674,0.63643 0.176605,0.21631 0.291814,0.48681 0.354935,0.75883 0.04981,0.21464 0.11073,0.46381 0.01224,0.66092 -0.04049,0.081 -0.141293,0.20341 -0.220304,0.1591 -0.0464,-0.026 0.04262,-0.11544 0.01224,-0.1591 -0.01696,-0.0244 -0.06241,-0.006 -0.08567,-0.0245 -0.0329,-0.0261 -0.05668,-0.0684 -0.0612,-0.11015 -0.0046,-0.0423 0.04713,-0.0811 0.03672,-0.1224 -0.02257,-0.0895 -0.127163,-0.13412 -0.195827,-0.19582 -0.120851,-0.1086 -0.256709,-0.19949 -0.379413,-0.30598 -0.06322,-0.0549 -0.103444,-0.14718 -0.183587,-0.17135 -0.07128,-0.0215 -0.14992,0.061 -0.220306,0.0367 -0.06279,-0.0216 -0.07384,-0.12013 -0.13463,-0.14687 -0.07469,-0.0329 -0.167238,0.0254 -0.244783,0 -0.07212,-0.0236 -0.111973,-0.10953 -0.183587,-0.13463 -0.09248,-0.0324 -0.225041,-0.0821 -0.293741,-0.0122 -0.0487,0.0495 0.02742,0.14027 0.01224,0.20806 -0.02234,0.0998 -0.05896,0.21708 -0.14687,0.26926 -0.06315,0.0375 -0.156254,0.0359 -0.220303,0 -0.07506,-0.0421 -0.09291,-0.14503 -0.134632,-0.2203 -0.03538,-0.0638 -0.03583,-0.15746 -0.09791,-0.19583 -0.04164,-0.0257 -0.09799,-0.003 -0.14687,0 -0.07377,0.004 -0.160489,-0.0189 -0.220304,0.0245 -0.03991,0.0289 -0.01557,0.11596 -0.0612,0.13463 -0.05259,0.0215 -0.113569,-0.0272 -0.159108,-0.0612 -0.05363,-0.04 -0.06236,-0.12955 -0.122391,-0.15911 -0.0183,-0.009 -0.04366,-0.0104 -0.0612,0 -0.04396,0.0261 -0.04579,0.0916 -0.07343,0.13463 -0.0331,0.0515 -0.04896,0.14633 -0.110152,0.14687 -0.04651,4.1e-4 -0.05286,-0.0772 -0.08568,-0.11015 -0.05123,-0.0515 -0.10739,-0.1002 -0.171348,-0.13463 -0.03408,-0.0183 -0.07149,-0.0386 -0.11015,-0.0367 -0.04013,0.002 -0.08608,0.0168 -0.110153,0.0489 -0.037,0.0494 0.01629,0.13723 -0.02448,0.18359 -0.04183,0.0476 -0.120339,0.0523 -0.183589,0.049 -0.0567,-0.003 -0.1108,-0.0313 -0.15911,-0.0612 -0.0565,-0.035 -0.10151,-0.0861 -0.14687,-0.13463 -0.0178,-0.0191 -0.0246,-0.0517 -0.049,-0.0612 -0.05,-0.0195 -0.10726,0.0383 -0.15911,0.0245 -0.0505,-0.0135 -0.072,-0.0842 -0.12239,-0.0979 -0.0278,-0.008 -0.0617,-0.004 -0.0857,0.0122 -0.047,0.0316 -0.0432,0.10934 -0.0857,0.14687 -0.0466,0.0412 -0.11178,0.0911 -0.17135,0.0734 -0.0423,-0.0126 -0.0446,-0.0768 -0.0734,-0.11016 -0.0359,-0.0415 -0.0742,-0.0839 -0.12239,-0.11015 -0.0408,-0.0223 -0.0936,-0.0587 -0.13463,-0.0367 -0.0341,0.0183 -0.0192,0.0756 -0.0367,0.11016 -0.0383,0.0757 -0.0715,0.169 -0.14687,0.20806 -0.0507,0.0263 -0.11526,0.0108 -0.17135,0 -0.0647,-0.0125 -0.1334,-0.0307 -0.18358,-0.0734 -0.0362,-0.0308 -0.0399,-0.0886 -0.0734,-0.1224 -0.0606,-0.0611 -0.13593,-0.1177 -0.22031,-0.13463 -0.0526,-0.0106 -0.11348,-0.004 -0.15911,0.0245 -0.0722,0.0447 -0.0799,0.15591 -0.14687,0.20807 -0.0897,0.0698 -0.20457,0.12134 -0.31821,0.12239 -0.0955,8.8e-4 -0.20173,-0.0304 -0.26927,-0.0979 -0.0338,-0.0338 -0.0211,-0.0958 -0.049,-0.13463 -0.0305,-0.0425 -0.0702,-0.0991 -0.12239,-0.0979 -0.0434,9.6e-4 -0.0546,0.0871 -0.0979,0.0857 -0.0519,-0.002 -0.0637,-0.0869 -0.11015,-0.11016 -0.0258,-0.0129 -0.0588,-0.0228 -0.0857,-0.0122 -0.0783,0.0307 -0.0922,0.14489 -0.15911,0.19582 -0.0567,0.0432 -0.12608,0.0711 -0.19582,0.0857 -0.0879,0.0184 -0.18262,0.0234 -0.26926,0 -0.0547,-0.0148 -0.10032,-0.0534 -0.14687,-0.0857 -0.0476,-0.0331 -0.08,-0.0907 -0.13463,-0.11015 -0.0269,-0.01 -0.0614,-0.015 -0.0857,0 -0.0466,0.0288 -0.0318,0.11129 -0.0734,0.14687 -0.0716,0.0612 -0.17563,0.0755 -0.26927,0.0857 -0.0448,0.005 -0.0931,0.005 -0.13463,-0.0122 -0.0641,-0.0268 -0.11286,-0.0828 -0.1591,-0.13463 -0.0294,-0.0329 -0.0355,-0.0876 -0.0734,-0.11015 -0.0387,-0.023 -0.0932,-0.0299 -0.13464,-0.0122 -0.0481,0.0205 -0.0591,0.0874 -0.0979,0.12239 -0.09,0.081 -0.19269,0.15306 -0.30597,0.19583 -0.0502,0.019 -0.10925,0.0443 -0.15911,0.0245 -0.0432,-0.0172 -0.0567,-0.0738 -0.0857,-0.11015 -0.0362,-0.0453 -0.0795,-0.0854 -0.11016,-0.13464 -0.026,-0.0419 -0.0379,-0.0912 -0.0612,-0.13463 -0.0182,-0.0339 -0.0238,-0.0887 -0.0612,-0.0979 -0.055,-0.0136 -0.0966,0.0595 -0.14687,0.0857 -0.0518,0.027 -0.10072,0.0715 -0.1591,0.0734 -0.0568,0.002 -0.12287,-0.0174 -0.15911,-0.0612 -0.0291,-0.0351 -0.0128,-0.0905 -0.0245,-0.13463 -0.0189,-0.0711 -0.0234,-0.15419 -0.0734,-0.20806 -0.0485,-0.0522 -0.12539,-0.075 -0.19583,-0.0857 -0.0365,-0.006 -0.0732,0.0136 -0.11015,0.0122 -0.0664,-0.002 -0.13432,-0.0117 -0.19583,-0.0367 -0.0272,-0.0111 -0.0453,-0.0404 -0.0734,-0.049 -0.0664,-0.0201 -0.13872,-10e-4 -0.20806,0 -0.098,0.002 -0.19756,0.031 -0.29374,0.0122 -0.0484,-0.009 -0.10944,-0.0188 -0.13464,-0.0612 -0.0293,-0.0492 0.0302,-0.11697 0.0122,-0.17135 -0.0118,-0.0357 -0.0393,-0.07 -0.0734,-0.0857 -0.0519,-0.0239 -0.11434,-0.004 -0.17134,0 -0.0657,0.004 -0.13196,0.009 -0.19583,0.0245 -0.0677,0.0167 -0.12874,0.0924 -0.19583,0.0734 -0.0448,-0.0126 -0.045,-0.0877 -0.0857,-0.11015 -0.0359,-0.0198 -0.0814,-0.0142 -0.12239,-0.0122 -0.10388,0.005 -0.20556,0.0341 -0.30598,0.0612 -0.14572,0.0394 -0.29022,0.086 -0.42837,0.14687 -0.14034,0.0618 -0.25998,0.16731 -0.40389,0.2203 -0.16819,0.0619 -0.52628,0.11015 -0.52628,0.11015"
       id="path873"
       sodipodi:nodetypes="caaaaaaaaaaaaaaaaaaaaaaaaaaaaaaaaaaaaaaaaaaaaaaaaaaaaaaaaaaaaaaaaaaaaaaaaaaaaaaaaaaaaaaaaaaaaaaaaaaaaaaaaaaaaaac" />
    <path
       style="fill:#749716;fill-opacity:1;stroke:#bde64e;stroke-width:0.55;stroke-linecap:butt;stroke-linejoin:miter;stroke-miterlimit:4;stroke-dasharray:none;stroke-opacity:1"
       d="m -118.06252,483.34557 c -0.0919,-0.0227 -0.20376,-0.0172 -0.2815,0.0367 -0.0645,0.0447 -0.11459,0.12971 -0.11015,0.20806 0.005,0.0938 0.0805,0.18117 0.15911,0.23255 0.1286,0.084 0.30805,0.13702 0.45285,0.0857 0.0655,-0.0232 0.12828,-0.0899 0.13463,-0.15911 0.009,-0.0983 -0.0805,-0.18399 -0.14687,-0.25702 -0.0571,-0.0628 -0.12566,-0.12649 -0.20807,-0.14687 z"
       id="path886"
       sodipodi:nodetypes="aaaaaaaa" />
    <path
       style="fill:#749716;fill-opacity:1;stroke:#bde64e;stroke-width:0.55;stroke-linecap:butt;stroke-linejoin:miter;stroke-miterlimit:4;stroke-dasharray:none;stroke-opacity:1"
       d="m -117.4016,482.34196 c -0.0859,-0.0411 -0.18751,-0.10283 -0.20807,-0.19583 -0.0142,-0.0644 0.015,-0.15305 0.0734,-0.18358 0.0965,-0.0504 0.2214,0.0237 0.31822,0.0734 0.0823,0.0423 0.17911,0.0957 0.20806,0.18359 0.0183,0.0555 0.0111,0.13782 -0.0367,0.17135 -0.0978,0.0685 -0.24719,0.003 -0.35493,-0.049 z"
       id="path888"
       sodipodi:nodetypes="aaaaaaa" />
    <path
       style="fill:#749716;fill-opacity:1;stroke:#bde64e;stroke-width:0.55;stroke-linecap:butt;stroke-linejoin:miter;stroke-miterlimit:4;stroke-dasharray:none;stroke-opacity:1"
       d="m -116.98547,483.21094 c -0.0656,0.0745 -0.0743,0.19778 -0.049,0.29374 0.0215,0.0813 0.0809,0.16491 0.15911,0.19583 0.0842,0.0333 0.19682,0.0177 0.26926,-0.0367 0.0643,-0.0482 0.088,-0.14055 0.0979,-0.22031 0.0117,-0.0945 0.0197,-0.2155 -0.049,-0.2815 -0.0445,-0.0428 -0.12205,-0.0294 -0.18359,-0.0245 -0.0849,0.007 -0.18847,0.01 -0.24478,0.0734 z"
       id="path890"
       sodipodi:nodetypes="aaaaaaaa" />
    <path
       style="fill:none;stroke:#bde64e;stroke-width:0.55;stroke-linecap:butt;stroke-linejoin:miter;stroke-miterlimit:4;stroke-dasharray:none;stroke-opacity:1"
       d="m -115.89619,482.75809 c 0,0 0.33614,0.24828 0.52628,0.33046 0.26705,0.11541 0.5777,0.10433 0.84451,0.2203 0.31451,0.13672 0.59791,0.3407 0.86898,0.55077 0.28745,0.22276 0.50648,0.52591 0.79554,0.74658 0.16741,0.1278 0.34027,0.25939 0.53852,0.33046 0.13959,0.05 0.30078,0.0119 0.44061,0.0612 0.15703,0.0554 0.2986,0.15268 0.42837,0.25702 0.0787,0.0633 0.20807,0.2203 0.20807,0.2203"
       id="path892"
       sodipodi:nodetypes="caaaaaaac" />
    <path
       style="fill:none;stroke:#bde64e;stroke-width:0.55;stroke-linecap:butt;stroke-linejoin:miter;stroke-miterlimit:4;stroke-dasharray:none;stroke-opacity:1"
       d="m -116.17769,484.83875 c 0,0 0.42496,0.47229 0.64868,0.69763 0.20943,0.21095 0.42411,0.41719 0.64867,0.61196 0.23248,0.20163 0.49259,0.37023 0.72211,0.57524 0.21085,0.18832 0.42282,0.37919 0.59972,0.59971 0.13314,0.16598 0.23882,0.35284 0.34269,0.53853 0.0864,0.15446 0.23255,0.47732 0.23255,0.47732"
       id="path894"
       sodipodi:nodetypes="caaaaac" />
  </g>
</svg>
